<?xml version="1.0" encoding="utf-8"?>
<!-- Generator: Adobe Illustrator 24.3.0, SVG Export Plug-In . SVG Version: 6.00 Build 0)  -->
<svg version="1.1"
	 id="Layer_1" xmlns:cc="http://creativecommons.org/ns#" xmlns:dc="http://purl.org/dc/elements/1.1/" xmlns:inkscape="http://www.inkscape.org/namespaces/inkscape" xmlns:rdf="http://www.w3.org/1999/02/22-rdf-syntax-ns#" xmlns:sodipodi="http://sodipodi.sourceforge.net/DTD/sodipodi-0.dtd" xmlns:svg="http://www.w3.org/2000/svg"
	 xmlns="http://www.w3.org/2000/svg" xmlns:xlink="http://www.w3.org/1999/xlink" x="0px" y="0px" viewBox="0 0 283.5 92.8"
	 style="enable-background:new 0 0 283.5 92.8;" xml:space="preserve">
<style type="text/css">
	.st0{fill:#E61D2A;}
</style>
<sodipodi:namedview  bordercolor="#666666" borderopacity="1" gridtolerance="10" guidetolerance="10" id="namedview4743" inkscape:current-layer="Layer_1" inkscape:cx="364.38356" inkscape:cy="130.9765" inkscape:pageopacity="0" inkscape:pageshadow="2" inkscape:window-height="705" inkscape:window-maximized="1" inkscape:window-width="1366" inkscape:window-x="-8" inkscape:window-y="-8" inkscape:zoom="0.365" objecttolerance="10" pagecolor="#ffffff" showgrid="false">
	</sodipodi:namedview>
<g id="g3" transform="matrix(1.2500001,0,0,1.2500001,-1.9366031e-5,7.2898633e-4)">
	<path id="path5" inkscape:connector-curvature="0" class="st0" d="M89.7,62c-7.6-4.9-17.9-5.8-34.5-1.1
		c-17.7,4.2-23.6,6.8-31.4,1.5c-3-2.6-4-6.9-3.3-13c1.9-10,6.9-19.5,15.7-30.2c5-5.5,9.6-10.3,15.6-12.2c4.7-1.2,4.2,2.5,3.7,3
		c-0.6,0-1.6,0.1-2.4,0.6c-0.6,0.5-2.3,2.1-2.4,4.2c-0.1,3.2,3.2,2.6,4.7,0.8c1.6-2,3.9-5.8,2-9.4c-0.8-1.3-2.1-2.1-3.7-2.4
		C48.2,3.4,43,6.1,38.3,9c-10.5,7.3-18.8,17.3-23.6,28.3C12,44,9.5,53.5,13.2,61.3c2.9,5.4,8.8,8.2,15.9,7.6c5-0.5,11-2.1,15-3.1
		c4-1,24.7-8.1,31.5,4.3c0,0,2.3-4.4,7.9-4.5c4.6-0.4,11.3,1.3,16.2,4.9C98.2,68.1,93.6,64.5,89.7,62L89.7,62z"/>
	<path id="path7" inkscape:connector-curvature="0" class="st0" d="M57.3,20.5c-3.9-2.5-11.6,2.3-17.9,10.6
		c-5.7,7.5-8.2,16.1-5.5,20.2c4,4.7,11.4-2.1,14.5-5.8l0.4-0.4c2.1-2.3,3.8-5.1,5.4-7.7c0,0,1.5-2.4,1.5-2.5c0.9-0.2,2-0.4,3.2-0.8
		c0,0.1-4.7,8-4.2,11.9c0.1,1.2,0,5.6,4.3,6.9c5.7,1,10.2-3.5,14.2-7.4c0,0,0.7-0.7,1.1-1c-0.1,0.4-0.2,0.9-0.2,0.9
		c-1.7,5.8,0.6,7,2,7.5c4.2,1.2,9.3-4.9,9.3-4.9c-0.1,1.9-0.5,3.5,1.5,4.8c1.9,0.7,3.9-0.4,5.4-1.4c5.4-3.8,9.7-9.7,13.1-14.8h-2.2
		c0,0-5.5,7.9-9,9.6c0,0-0.7,0.3-1,0.1c-0.5-0.4-0.3-1.2,0-1.8c0,0,13.7-23.7,13.7-23.7h-6.4c0,0-0.7,1.1-0.8,1.2
		c0,0-0.1-0.2-0.2-0.3c-4-5.5-13,3-19.9,12.8c-2.6,3.8-6,8.1-9.4,11.1c0,0-5.1,4.7-7.3,1.3c-0.8-1.4-0.6-3.5-0.1-4.9
		c2.6-7.3,6.9-13.9,12-17.8c1.4-1.1,2.9-1.4,3.7-1c0.7,0.4,0.8,1.5,0.4,2.2c-1.2,0-2.1,0.3-2.9,1.1c-1.5,1.6-2,3.1-1.5,4.5
		c2.3,3.3,6.9-3.2,6.7-7.2c-0.1-1.4-0.8-2.8-2-3.4c-1.7-1-4.3-0.7-5.9,0.1c-2.2,0.8-5.7,3.8-7.8,6c-2.6,2.9-7,6-8.4,5.7
		C57.5,31,61.2,23.3,57.3,20.5L57.3,20.5L57.3,20.5z M88.4,31.8c1.3-1.7,4.9-6.4,5.8-7.2c3-2.6,4.2-1.5,4.3-0.7
		c-2.8,5-6.1,10.7-9.2,15.9c0,0-1,1.5-1,1.5c-1.4,2.1-2.7,3.9-5,5.1c-0.3,0.1-0.8,0.1-1.2-0.1c-0.4-0.3-0.6-0.7-0.5-1.2
		C81.7,43.5,83.3,38.6,88.4,31.8L88.4,31.8L88.4,31.8z M53.3,34.8c0,0-0.1,0.2-0.1,0.2c0,0-2.8,4.6-2.8,4.6
		c-1.7,2.3-3.8,5.1-6.4,6.5c-0.8,0.3-1.9,0.4-2.4-0.3c-1.2-1.4-0.6-3.3-0.1-4.9l0.2-0.6c1.4-3.8,3.6-7.2,5.8-10.3c0,0,0.1,0,0.1,0
		c0,0,0,0,0,0.1c1.4,2.6,3.9,3.8,5.8,4.4c0,0,0,0,0,0.1C53.4,34.6,53.4,34.7,53.3,34.8L53.3,34.8z M56,29.4c0,0-1.2,2.9-1.2,2.9
		c-0.2,0.1-0.5,0.1-0.8,0l-0.6-0.1c-1.7-0.5-3.1-1.7-3.5-3.1c-0.6-2.7,1.7-4.8,2.7-5.6c1-0.7,2.5-1,3.4-0.3c0.5,0.6,0.7,1.5,0.7,2.4
		C56.8,26.8,56.4,28.2,56,29.4C56,29.4,56,29.4,56,29.4z"/>
	<path id="path9" inkscape:connector-curvature="0" class="st0" d="M137.5,38.1c-0.6-1.3-2.1-2.2-3.7-2.1
		c-5.1,0.5-10.1,4.7-12.7,10.7c-1.4,3.1-2.1,5.7-2.6,9.7c1.6-1.8,4.8-4.8,8.5-6.5c0,0,0.5-3.9,3.1-7.4c1-1.4,2.9-3.8,5.1-3.1
		c1.9,0.6,1.2,5.9-1.3,11c-1.9,3.7-4.7,7.5-7.6,10c-2.6,2.2-6.3,4.8-9.6,2.8c-2.1-1.2-3.1-3.8-2.9-7.1c1-9.4,5.3-17.5,11.4-26.6
		c6.3-8.5,13.3-17.2,22.7-21.9c1.9-1,3.7-1.2,5.2-0.6c0,0-8.8,4.9-13,13.8c-1.1,2.3-2.6,5.4-1.1,8.1c0.8,1.4,2.2,1.5,3.3,1.5
		c5.2-1.2,8.5-6,11.2-10.4c1.6-3.3,3-6.7,3-10.4c0-0.4,0-1-0.1-1.5c2.5-1.3,7.5,1,7.5,1c3.9,1.3,12.4,7.7,15.2,9
		c1.4-1.6,3.7-4,4.9-5.2l-1.9-1.1c-3-1.8-6.1-3.5-9.2-5.2C166,2.6,160.3,4,157.3,5c-1.1,0.4-2.2,0.8-2.2,0.8
		c-2.2-2.4-5.7-2.1-8.3-1.5c-9.4,2.7-18.1,9.2-27.4,20.6c-6.9,8.9-11.1,16.6-13.4,24.2c-1.7,5.1-2.3,12.6,2,17.1
		c3.6,3.8,8.4,3,11.8,1.6c7.4-3.6,14-11.4,17.3-20.4C138,44.7,138.9,41,137.5,38.1L137.5,38.1L137.5,38.1z M154.4,10
		c-1,11.2-9.7,17.7-11.8,18.2c-1.3,0.3-3.5-0.3-1.5-5c2.9-6.3,7.9-11.7,13.3-14.4C154.4,9.2,154.4,9.5,154.4,10L154.4,10L154.4,10z"
		/>
	<path id="path11" inkscape:connector-curvature="0" class="st0" d="M205.9,11.4c-4.7,2.7-9.5,4.4-15.4,3.8
		c-1.6,1.8-3.2,3.7-4.7,5.7c8.2,2.1,16.9-2.6,21.8-7c5.1-4.5,7.8-10.1,7.8-10.1S211.6,8.1,205.9,11.4L205.9,11.4z"/>
	<polygon id="polygon13" class="st0" points="114.2,26.3 117.7,20.7 111.5,20.7 108.1,26.3 	"/>
	<path id="path15" inkscape:connector-curvature="0" class="st0" d="M190.5,62.5c-0.7,0.4-1.6,0.1-1.2-0.9c0.9-2.6,4.3-7.9,4.3-7.9
		l9.5-16.9h-6.5c-0.3,0.5-1,1.7-1,1.7c-0.3-0.5-1.2-1.6-1.6-1.9c-1.6-1-3.9-0.5-5.6,0.4c-7,4.1-12.2,12.2-16.2,18.6
		c0,0-4.3,7-6.6,7.6c-1.8,0.1-1.7-2.3-1.6-2.9c0.7-4.2,2.4-8.2,4-11.8c3.4-2.4,7.3-5.4,10.8-8.8c7.6-7.3,14.1-15.6,15-17.4
		c0,0-1,0.2-2.2,0.2c-5.9,8.2-17.9,20.1-21.5,21.9c1.6-3.9,12-22.4,20.9-31.3l1.4-1.3c2.2-2.1,4.4-4.3,6.1-4.6c0.2,0,0.4,0,0.6,0.4
		c0.1,1.6-0.5,2.9-1.2,4.2l-1,2c0,0,1.4-0.3,2.3-0.6c1.1-2,2.2-4.2,1.8-6.9c-0.1-0.9-0.8-1.5-1.6-1.7c-2.6-0.5-5.5,1.5-7.9,3
		l-0.1,0.1c-11.9,9.4-22,22.8-30.8,41.2c-0.6,0.5-3.1,1.1-3.5,0.8c0.9-1.8,2-4.2,2.5-6.8c0.1-0.7,0.2-1.5,0.2-2.3
		c0-1.6-0.4-3.1-1.8-4.2c-1.7-0.8-3.8-0.4-5.2,0.2c-6.3,2.6-11,9.1-14.4,14.4c-1.8,3.4-3.6,7-4.2,11.1c-0.4,3.2,0.4,5.3,2.2,6.4
		c1.9,1,4.3,0,5.2-0.5c6.4-3.4,10.8-10.1,14.4-16.3c0.1,0,2.1-0.1,3.5-0.4c0,0,0,0,0.1,0c-0.1,0.3-0.8,2.5-0.8,2.5
		c-2.2,6.5-3.3,11-1.2,13.6c3,3.7,8-0.1,12-5.2c-0.9,6.1,2.3,7,4.7,6.6c2.8-0.7,5.8-3.7,7.3-5.2c-0.5,1.8-0.3,4.9,2.2,5.3
		c1.7,0.3,3-0.6,4.5-1.4c5.3-2.9,11.8-12.6,13.4-15.4h-2.2C197.3,55.6,194.3,60.3,190.5,62.5L190.5,62.5L190.5,62.5z M142.5,61.9
		c-0.3-0.5-0.5-1.1-0.5-1.7c-0.1-3.7,3.9-10.2,6.7-13.8c0,0,0,0,0,0c1.2,2.6,3.8,4.2,5.4,4.9C152.1,55.7,145.3,65.2,142.5,61.9
		L142.5,61.9L142.5,61.9z M155.2,49.4c-0.2,0.1-3.5-1-4.2-4.1c-0.5-2.7,1.3-4.7,3-5.8c0.8-0.6,1.9-0.8,2.7-0.5c0.8,0.5,1,1.5,1,2.5
		c0,0.6-0.1,1.3-0.2,1.8c0,0,0,0.1,0,0.1C157.1,45.5,156.2,47.5,155.2,49.4L155.2,49.4L155.2,49.4z M181.9,60.7c0,0-0.6,0.6-0.6,0.6
		c-0.9,0.8-1.8,1.7-2.9,1.2c-0.3-0.1-0.5-0.5-0.6-0.8c-0.1-2.3,1-4.4,2-6.5l0.3-0.5c2.9-4.8,6.2-10.5,11.2-14.4
		c0.8-0.6,1.7-1.1,2.7-0.7c0.2,0.2,0.5,0.6,0.5,0.9c0,0.1-0.1,0.4-0.2,0.5c-1.4,2.2-2.7,4.6-4,6.8C187.7,52.1,185.1,56.7,181.9,60.7
		L181.9,60.7L181.9,60.7z"/>
</g>
</svg>
