<?xml version="1.0" encoding="utf-8"?>
<!-- Generator: Adobe Illustrator 24.3.0, SVG Export Plug-In . SVG Version: 6.00 Build 0)  -->
<svg version="1.1" id="Layer_1" xmlns="http://www.w3.org/2000/svg" xmlns:xlink="http://www.w3.org/1999/xlink" x="0px" y="0px"
	 viewBox="0 0 283.5 66.7" style="enable-background:new 0 0 283.5 66.7;" xml:space="preserve">
<style type="text/css">
	.st0{fill:#00AA13;}
</style>
<g>
	<path class="st0" d="M33,33.2C33,27,38,22,44.2,22s11.3,5,11.3,11.2s-5,11.2-11.3,11.2S33,39.4,33,33.2"/>
	<path class="st0" d="M44.2,3.3c-16.6,0-30,13.4-30,29.8c0,12.4,7.5,22.9,18.4,27.6c2.9,1.2,6.2-0.1,7.4-3c0.1-0.4,0.3-0.7,0.3-1.1
		c0.5-2.6-0.9-5.3-3.3-6.3v0c-6.8-2.8-11.5-9.5-11.5-17.2c0-10.3,8.4-18.7,18.8-18.7s18.8,8.4,18.8,18.7c0,7.8-4.8,14.4-11.5,17.2v0
		c-2.9,1.2-4.2,4.4-3.1,7.3c0.9,2.1,3,3.5,5.3,3.5c0.7,0,1.5-0.2,2.2-0.4c10.9-4.6,18.4-15.2,18.4-27.6C74.2,16.6,60.7,3.3,44.2,3.3
		"/>
	<path d="M161.2,30c0-5.4-3.7-9.4-9.5-9.4c-5.8,0-9.5,4-9.5,9.4s3.7,9.4,9.5,9.4C157.5,39.4,161.2,35.4,161.2,30 M132.9,30
		c0-9.9,7.9-17.6,18.9-17.6c11,0,18.9,7.7,18.9,17.6s-7.8,17.6-18.9,17.6C140.8,47.6,132.9,39.9,132.9,30 M167.4,54.9h5.1
		c2.7,0,3.7-1,3.7-3.4v-39h9.3v39c0,8.2-3.3,11.7-12.2,11.7h-5.8v-8.5L167.4,54.9z M117.9,31.9c0,4.1-4.2,7.4-9.5,7.4
		c-6,0-9.8-3.5-9.8-9.4c0-5.4,4-9.2,10.2-9.2c4.9,0,9.2,3.4,9.2,7.3L117.9,31.9L117.9,31.9z M118.3,12.5v3.9h-0.1
		c-2.4-2.5-6.4-3.9-11.2-3.9c-10.2,0-17.8,7.6-17.8,17.4c0,10.2,7.8,17.7,18.1,17.7c4.6,0,8.5-1.5,10.9-4.1h0.1v3.4
		c0,4.5-3.9,7.9-9.2,7.9c-5.3,0-8.3-1.5-11-4l-6.1,5.8c4.1,4.3,10.2,6.8,17.2,6.8c10.7,0,18-7.1,18-16.6V12.5L118.3,12.5L118.3,12.5
		z M209.4,20c5,0,8.4,2.6,8.9,6.5h-17.9C200.9,22.6,204.3,20,209.4,20 M210.3,40.2c-5.6,0-10-3.6-10.1-7.1h27.2v-2.6
		c0-10-6.9-17.9-18.2-17.9c-10.6,0-18.2,7.4-18.2,17.7c0,10.6,8,17.5,19.7,17.5c7.2,0,12.3-3.4,15-6.7l-6.3-4.4
		C216.7,39.2,214.2,40.2,210.3,40.2 M232.9,3.5h9l0,23.1h0.1l15.1-14.1h12.1l-15.6,14.7l15.6,20.5h-10.8L247.8,33h-0.1l-5.7,5.4v9.5
		h-9L232.9,3.5z"/>
</g>
</svg>
